<?xml version="1.0" encoding="UTF-8"?>
<svg xmlns="http://www.w3.org/2000/svg" width="1280" height="720" viewBox="0 0 1280 720">
  <defs>
    <linearGradient id="bg" x1="0" y1="0" x2="1" y2="1">
      <stop offset="0" stop-color="#050615"/>
      <stop offset="0.5" stop-color="#0B1434"/>
      <stop offset="1" stop-color="#0F2A5A"/>
    </linearGradient>
    <linearGradient id="neon" x1="0" y1="0" x2="1" y2="0">
      <stop offset="0" stop-color="#2DE2E6"/>
      <stop offset="0.5" stop-color="#7C4DFF"/>
      <stop offset="1" stop-color="#FF3D81"/>
    </linearGradient>
    <linearGradient id="panel" x1="0" y1="0" x2="0" y2="1">
      <stop offset="0" stop-color="#0E1638"/>
      <stop offset="1" stop-color="#0A1028"/>
    </linearGradient>

    <filter id="shadow" x="-30%" y="-30%" width="160%" height="160%">
      <feDropShadow dx="0" dy="14" stdDeviation="16" flood-color="#000" flood-opacity="0.55"/>
    </filter>
    <filter id="softGlow" x="-50%" y="-50%" width="200%" height="200%">
      <feGaussianBlur stdDeviation="12" result="blur"/>
      <feColorMatrix in="blur" type="matrix" values="1 0 0 0 0  0 1 0 0 0  0 0 1 0 0  0 0 0 0.55 0" result="glow"/>
      <feMerge>
        <feMergeNode in="glow"/>
        <feMergeNode in="SourceGraphic"/>
      </feMerge>
    </filter>

    <pattern id="dots" width="26" height="26" patternUnits="userSpaceOnUse">
      <circle cx="2" cy="2" r="1.5" fill="#FFFFFF" opacity="0.08"/>
    </pattern>

    <style>
      .sans { font-family: system-ui, -apple-system, Segoe UI, Roboto, Arial, sans-serif; }
      .mono { font-family: ui-monospace, SFMono-Regular, Menlo, Consolas, "Liberation Mono", monospace; }
      .heavy { font-weight: 900; }
      .bold { font-weight: 800; }
    </style>
  </defs>

  <!-- Background -->
  <rect width="1280" height="720" fill="url(#bg)"/>
  <rect width="1280" height="720" fill="url(#dots)"/>

  <!-- Neon diagonal sweep -->
  <g opacity="0.9" filter="url(#softGlow)">
    <path d="M 830 -80 L 1400 220 L 1300 500 L 740 190 Z" fill="url(#neon)" opacity="0.35"/>
    <path d="M 760 40 L 1400 380 L 1370 470 L 720 130 Z" fill="#2DE2E6" opacity="0.10"/>
  </g>

  <!-- Left text block -->
  <g filter="url(#shadow)">
    <rect x="70" y="86" width="760" height="548" rx="34" fill="url(#panel)" stroke="#26346B" stroke-width="2" opacity="0.98"/>
    <rect x="70" y="86" width="760" height="10" rx="5" fill="url(#neon)"/>
  </g>

  <!-- Badge row -->
  <g transform="translate(110 118)" filter="url(#shadow)">
    <rect x="0" y="0" width="220" height="44" rx="14" fill="#081028" stroke="#22306A" stroke-width="2"/>
    <rect x="0" y="0" width="16" height="44" rx="14" fill="url(#neon)"/>
    <text x="28" y="29" class="sans bold" font-size="18" fill="#FFFFFF" opacity="0.95">AI Model Init</text>
  </g>
  <g transform="translate(342 118)" filter="url(#shadow)">
    <rect x="0" y="0" width="250" height="44" rx="14" fill="#081028" stroke="#22306A" stroke-width="2"/>
    <text x="18" y="29" class="sans bold" font-size="18" fill="#BBD0FF">Responsive Layout Trick</text>
  </g>

  <!-- Main headline -->
  <text x="110" y="230" class="sans heavy" font-size="58" fill="#FFFFFF" letter-spacing="1">STOP USING</text>

  <g transform="translate(110 256)">
    <text x="0" y="92" class="sans heavy" font-size="112" fill="#FFFFFF">FLEXBOX</text>
    <!-- strike-through -->
    <path d="M -10 60 L 520 10" stroke="#FF3D81" stroke-width="18" stroke-linecap="round" filter="url(#softGlow)"/>
    <path d="M -10 60 L 520 10" stroke="#FFD166" stroke-width="6" stroke-linecap="round" opacity="0.9"/>
  </g>

  <!-- Subhead pill -->
  <g transform="translate(110 404)" filter="url(#shadow)">
    <rect x="0" y="0" width="670" height="68" rx="22" fill="#071029" stroke="#23306A" stroke-width="2"/>
    <rect x="14" y="14" width="40" height="40" rx="14" fill="url(#neon)"/>
    <text x="70" y="45" class="sans heavy" font-size="34" fill="#FFFFFF">Use CSS Grid</text>
    <text x="285" y="45" class="mono bold" font-size="30" fill="#2DE2E6">auto-fit</text>
    <text x="432" y="45" class="sans heavy" font-size="34" fill="#FFFFFF">+</text>
    <text x="468" y="45" class="mono bold" font-size="30" fill="#FF3D81">minmax()</text>
  </g>

  <!-- Small code snippet -->
  <g transform="translate(110 492)" filter="url(#shadow)">
    <rect x="0" y="0" width="670" height="120" rx="22" fill="#050A1C" stroke="#23306A" stroke-width="2"/>
    <text x="22" y="42" class="mono bold" font-size="22" fill="#A9B7FF">grid-template-columns:</text>
    <text x="22" y="76" class="mono bold" font-size="22" fill="#FFFFFF">repeat(</text>
    <text x="120" y="76" class="mono bold" font-size="22" fill="#2DE2E6">auto-fit</text>
    <text x="220" y="76" class="mono bold" font-size="22" fill="#FFFFFF">, </text>
    <text x="248" y="76" class="mono bold" font-size="22" fill="#FF3D81">minmax(100px, 200px)</text>
    <text x="562" y="76" class="mono bold" font-size="22" fill="#FFFFFF">);</text>
    <text x="22" y="106" class="sans heavy" font-size="22" fill="#BBD0FF" opacity="0.95">Made Simple • Fast • Practical</text>
  </g>

  <!-- Right preview panel -->
  <g transform="translate(855 90)" filter="url(#shadow)">
    <rect x="0" y="0" width="365" height="540" rx="34" fill="#081028" stroke="#2A3A78" stroke-width="2" opacity="0.98"/>
    <rect x="0" y="0" width="365" height="10" rx="5" fill="url(#neon)"/>

    <!-- mini label -->
    <g transform="translate(24 24)">
      <rect x="0" y="0" width="208" height="40" rx="14" fill="#050A1C" stroke="#23306A" stroke-width="2"/>
      <text x="14" y="26" class="sans heavy" font-size="18" fill="#FFFFFF">CSS GRID RESULT</text>
    </g>

    <!-- grid mockup -->
    <g transform="translate(24 86)">
      <rect x="0" y="0" width="317" height="180" rx="22" fill="#0E1638" stroke="#23306A" stroke-width="2"/>
      <rect x="18" y="18" width="120" height="64" rx="16" fill="#FF3D81" opacity="0.95"/>
      <rect x="158" y="18" width="141" height="64" rx="16" fill="#2DE2E6" opacity="0.88"/>
      <rect x="18" y="98" width="170" height="64" rx="16" fill="#7C4DFF" opacity="0.88"/>
      <rect x="206" y="98" width="93" height="64" rx="16" fill="#FFD166" opacity="0.92"/>

      <g opacity="0.9">
        <text x="30" y="58" class="sans heavy" font-size="28" fill="#071029">1</text>
        <text x="170" y="58" class="sans heavy" font-size="28" fill="#071029">2</text>
        <text x="30" y="138" class="sans heavy" font-size="28" fill="#071029">3</text>
        <text x="228" y="138" class="sans heavy" font-size="28" fill="#071029">4</text>
      </g>
    </g>

    <!-- from flexbox to grid icon -->
    <g transform="translate(24 294)">
      <rect x="0" y="0" width="317" height="216" rx="22" fill="#0B122D" stroke="#23306A" stroke-width="2"/>

      <!-- Flexbox icon (crossed) -->
      <g transform="translate(18 18)" opacity="0.95">
        <text x="0" y="26" class="sans heavy" font-size="18" fill="#BBD0FF">FLEXBOX</text>
        <rect x="0" y="40" width="140" height="64" rx="16" fill="#0E1638" stroke="#23306A" stroke-width="2"/>
        <rect x="10" y="52" width="36" height="40" rx="12" fill="#FF3D81" opacity="0.9"/>
        <rect x="54" y="52" width="36" height="40" rx="12" fill="#2DE2E6" opacity="0.85"/>
        <rect x="98" y="52" width="32" height="40" rx="12" fill="#7C4DFF" opacity="0.85"/>
        <path d="M -2 108 L 142 34" stroke="#FF3D81" stroke-width="10" stroke-linecap="round" filter="url(#softGlow)"/>
      </g>

      <!-- Arrow -->
      <g transform="translate(166 62)" filter="url(#softGlow)">
        <path d="M 0 22 C 40 22, 60 22, 110 22" stroke="url(#neon)" stroke-width="10" stroke-linecap="round"/>
        <path d="M 108 6 L 140 22 L 108 38" fill="none" stroke="url(#neon)" stroke-width="10" stroke-linecap="round" stroke-linejoin="round"/>
      </g>

      <!-- Grid icon -->
      <g transform="translate(198 18)" opacity="0.98">
        <text x="0" y="26" class="sans heavy" font-size="18" fill="#FFFFFF">GRID</text>
        <rect x="0" y="40" width="118" height="64" rx="16" fill="#0E1638" stroke="#23306A" stroke-width="2"/>
        <rect x="10" y="50" width="40" height="20" rx="8" fill="#2DE2E6" opacity="0.9"/>
        <rect x="58" y="50" width="50" height="20" rx="8" fill="#FF3D81" opacity="0.9"/>
        <rect x="10" y="74" width="98" height="20" rx="8" fill="#7C4DFF" opacity="0.85"/>
      </g>

      <!-- Helper text -->
      <g transform="translate(18 128)">
        <rect x="0" y="0" width="281" height="70" rx="18" fill="#050A1C" stroke="#23306A" stroke-width="2"/>
        <text x="16" y="30" class="sans heavy" font-size="22" fill="#FFFFFF">Cleaner Responsive UI</text>
        <text x="16" y="56" class="sans bold" font-size="18" fill="#BBD0FF">Less hacks • More control</text>
      </g>
    </g>
  </g>

  <!-- Footer microtext (optional channel tag) -->
  <text x="72" y="702" class="sans bold" font-size="16" fill="#BBD0FF" opacity="0.75">Tip: edit text inside thumbnail.svg</text>
</svg>
